<svg id="Layer_1" data-name="Layer 1" xmlns="http://www.w3.org/2000/svg" viewBox="0 0 181.51 217.08"><defs><style>.cls-1{fill:none;stroke:#231f20;stroke-miterlimit:10;stroke-width:6px;}</style></defs><path class="cls-1" d="M57,142l36-1V272" transform="translate(-56.92 -137.92)"/><path class="cls-1" d="M93,159l119-1c5.86-1.1,13.95-1.62,19,3,10.09,9.23,1.45,32.92-11,66-12.95,34.41-19.74,51.74-35,58-5.76,2.36-16.84,1.57-39,0-32.58-2.31-45.74-6.12-51,1-3.42,4.64-3.08,13.34,1,19,16.53,22.94,88.69-12.11,101,8,2.48,4,2,9.39,0,15" transform="translate(-56.92 -137.92)"/><circle class="cls-1" cx="44.08" cy="200.08" r="13"/><circle class="cls-1" cx="122.08" cy="201.08" r="13"/></svg>